<svg xmlns="http://www.w3.org/2000/svg" xmlns:xlink="http://www.w3.org/1999/xlink" version="1.1" xml:space="preserve" viewBox="0 0 472 111">
<desc>Created with Fabric.js 5.2.4</desc>
<defs>
</defs>
<rect x="0" y="0" width="100%" height="100%" fill="transparent"/>
<g transform="matrix(1 0 0 1 236 55.5)" id="31adb07d-303e-4b32-b1e7-86eaa3a59dd9">
<rect style="stroke: none; stroke-width: 1; stroke-dasharray: none; stroke-linecap: butt; stroke-dashoffset: 0; stroke-linejoin: miter; stroke-miterlimit: 4; fill: rgb(255,255,255); fill-rule: nonzero; opacity: 1; visibility: hidden;" vector-effect="non-scaling-stroke" x="-236" y="-55.5" rx="0" ry="0" width="472" height="111"/>
</g>
<g transform="matrix(Infinity NaN NaN Infinity 0 0)" id="2771e025-3f1d-4e99-8db1-a511692489a5">
</g>
<g transform="matrix(1 0 0 1 236 55.5)">
<g style="" vector-effect="non-scaling-stroke">
		<g transform="matrix(1 0 0 1 -177.94 0)">
<path style="stroke: none; stroke-width: 1; stroke-dasharray: none; stroke-linecap: butt; stroke-dashoffset: 0; stroke-linejoin: miter; stroke-miterlimit: 4; fill: rgb(255,255,255); fill-rule: nonzero; opacity: 1;" vector-effect="non-scaling-stroke" transform=" translate(-58.3, -57)" d="M 81.97 77.46 L 81.93 106.75 C 81.93 106.94360803758286 81.85308950653325 107.12928639399912 81.71618795026619 107.26618795026619 C 81.57928639399913 107.40308950653325 81.39360803758287 107.48 81.2 107.48 L 35.32 107.48 C 35.12639196241713 107.48 34.940713606000884 107.40308950653325 34.80381204973382 107.26618795026619 C 34.66691049346676 107.12928639399911 34.59 106.94360803758286 34.59 106.75 L 34.58 77.46 C 34.57999999999999 77.05683213262353 34.253167867376476 76.73 33.85 76.73 L 4.72 76.75 C 4.526391962417132 76.75 4.340713606000884 76.67308950653324 4.203812049733819 76.53618795026618 C 4.066910493466754 76.39928639399912 3.9899999999999993 76.21360803758286 3.99 76.02 L 3.97 30.24 C 3.970000000000002 29.83683213262352 4.296832132623522 29.51 4.7 29.51 L 34.78 29.52 C 34.9723471699733 29.516730809951444 35.1556288423655 29.43766812774304 35.29 29.3 L 57.69 6.73 C 57.82719952342685 6.590751254082403 58.014516183615676 6.5123475382979805 58.209999999999994 6.5123475382979805 C 58.40548381638432 6.5123475382979805 58.592800476573146 6.590751254082403 58.73 6.73 L 81.31 29.31 C 81.4459978352777 29.443998435156 81.62907956203024 29.519385028524695 81.82 29.52 L 111.88 29.5 C 112.07360803758286 29.5 112.25928639399912 29.576910493466755 112.39618795026618 29.713812049733818 C 112.53308950653324 29.850713606000884 112.61 30.036391962417134 112.61 30.23 L 112.63 75.99 C 112.63 76.39316786737648 112.30316786737649 76.72 111.9 76.72 L 82.7 76.73 C 82.29683213262352 76.73 81.97 77.05683213262351 81.97 77.46 Z M 62.19 18.39 Q 62.75 17.36 64.98 15.96 C 65.1541121747308 15.853653581627931 65.27028159843698 15.673769038677646 65.2955873016829 15.47132341271036 C 65.3208930049288 15.268877786743076 65.25257729713981 15.065932602355893 65.11 14.92 L 58.69 8.29 C 58.60252641901039 8.198418761480003 58.48102305295914 8.14677885362711 58.35301544488425 8.14677885362711 C 58.22500783680937 8.14677885362711 58.10132996929793 8.198418761480003 58.01 8.29 L 37.57 28.81 Q 36.86 29.52 37.87 29.52 L 65.97 29.51 Q 66.49 29.51 66.86 29.15 L 72.82 23.36 Q 73.14 23.04 72.84 22.71 L 70.29 19.91 Q 70.01 19.6 69.72 19.91 L 63.79 26.46 Q 63.56 26.72 63.33 26.46 L 63.11 26.22 Q 62.67 25.72 63.12 25.23 L 68.67 19.2 Q 69.05 18.78 68.64 18.39 L 66.73 16.52 C 66.61386557500316 16.410260632855753 66.45892335269383 16.351500007960258 66.30060241469651 16.35715432717445 C 66.1422814766992 16.362808646388636 65.99412123361425 16.43239435933393 65.89 16.55 Q 64.46 18.17 63.22 19.23 Q 60.43 21.61 62.19 18.39 Z M 68.91 28.96 C 68.81659669091671 29.0503440604651 68.78710239921378 29.188201819012857 68.83536351000745 29.30885459599702 C 68.88362462080111 29.42950737298118 69.00005687241203 29.508994514203398 69.13 29.51 L 73.81 29.52 C 73.89216869318619 29.519359060168554 73.97094195481897 29.487133634955146 74.03 29.43 L 76.59 26.93 C 76.65232428285329 26.869711836668802 76.68751404538713 26.786712045708914 76.68751404538713 26.7 C 76.68751404538713 26.613287954291085 76.65232428285329 26.530288163331196 76.59 26.47 L 74.28 24.14 C 74.15808733635275 24.01390872735408 73.95739360600206 24.00944886667962 73.83 24.13 L 68.91 28.96 Z M 78.62 29.55 Q 78.8 29.58 78.98 29.62 C 79.07536864485073 29.639577240616504 79.17368338405876 29.60423396179991 79.23475850344373 29.52841657221856 C 79.29583362282871 29.45259918263721 79.30943379120933 29.34901361065409 79.27 29.26 Q 78.86 28.3 77.96 27.84 C 77.64993333682946 27.68158451425633 77.27255635633132 27.775928759380868 77.08 28.06 L 76.44 29.02 Q 76.03 29.64 76.77 29.58 L 77.91 29.5 Q 78.27 29.48 78.62 29.55 Z M 93.84 31.58 Q 93.86 31.44 93.89 31.21 Q 93.96 30.74 93.49 30.74 L 82.48 30.75 Q 81.96 30.75 81.96 31.27 L 81.96 51.99 Q 81.96 52.52 82.49 52.52 L 110.74 52.52 Q 111.25 52.52 111.25 52.01 L 111.27 44.74 Q 111.27 43.98 110.73 44.51 L 107.35 47.85 Q 107.13 48.06 106.88 47.91 L 106.62 47.77 C 106.46519295079551 47.682117044601725 106.35932307324774 47.52797423448064 106.33381178794865 47.35332005050999 C 106.30830050264956 47.17866586653935 106.36607935652253 47.003570129963684 106.49 46.88 L 111.67 41.53 Q 111.79 41.4 111.67 41.27 L 111.42 41.01 Q 111.07 40.66 110.71 41 L 103.83 47.49 Q 103.55 47.76 103.28 47.49 L 103.07 47.27 C 102.94906048506569 47.15150395946849 102.88090815370096 46.98931532090804 102.88090815370096 46.82 C 102.88090815370096 46.65068467909196 102.94906048506569 46.48849604053151 103.07 46.37 L 110.59 39.15 Q 111.17 38.59 111.25 37.79 L 111.34 36.77 Q 111.44 35.75 110.71 36.47 L 100.41 46.68 C 100.29389800970013 46.79515977435606 100.11096818295782 46.80792232040785 99.98 46.71 L 99.65 46.47 C 99.52016652181355 46.37578853039419 99.43883041157486 46.228697071401946 99.42729910979592 46.06725884649685 C 99.41576780801698 45.90582062159176 99.475190370403 45.746122410646485 99.59 45.63 L 111 34.37 C 111.309862286305 34.059878919018395 111.4639964605922 33.62316542520468 111.42 33.18 L 111.36 32.51 C 111.34575037313806 32.40113126132844 111.27123846766489 32.30964569175781 111.16750671223825 32.27365712354857 C 111.06377495681163 32.237668555339326 110.94861358013355 32.26334910865341 110.87 32.34 L 96.82 46.5 Q 96.4 46.92 96.15 46.39 L 95.94 45.93 C 95.84959860428513 45.746239414954374 95.88574221243408 45.52536180959968 96.03 45.38 L 110.07 31.3 C 110.18619143201518 31.176731957598786 110.21461126018825 30.994699038064272 110.1415238461682 30.84187989965869 C 110.06843643214813 30.689060761253103 109.90889189802647 30.596923841076944 109.74 30.61 L 108.66 30.72 C 108.14340812031311 30.765212213613488 107.66112373587829 30.992169570994577 107.3 31.36 L 95.62 42.99 C 95.53308658401622 43.076467830250394 95.40635251442615 43.109447966102046 95.28831517791956 43.076314678661596 C 95.17027784141297 43.043181391221154 95.07921955254287 42.94906655825787 95.05 42.83 L 94.93 42.42 C 94.84898939489189 42.1224989889283 94.93266860193575 41.802996562033606 95.15 41.58 L 105.51 31.2 Q 106.22 30.49 105.23 30.63 L 104.24 30.77 Q 103.46 30.87 102.9 31.43 L 95.5 38.75 C 95.41326610959665 38.83664643839839 95.29479028542976 38.88432280109303 95.17087332590751 38.88244527140329 C 95.04695636638526 38.88056774171356 94.92785179945881 38.829291676123574 94.84 38.74 L 94.67 38.56 C 94.4335548707409 38.32208882677841 94.4335548707409 37.93791117322159 94.67 37.7 L 101.19 31.19 Q 101.56 30.82 101.06 30.66 L 100.73 30.55 C 100.37502194550584 30.432914762495685 99.9843624889195 30.525744732377586 99.72 30.79 L 94.71 35.69 C 94.63615486610986 35.7594768327704 94.53443306980753 35.7911546266905 94.43583591093862 35.775379081271474 C 94.33723875206971 35.75960353585245 94.25344792954112 35.69824372291941 94.21 35.61 L 94.04 35.28 C 93.89594454566705 34.98817092639723 93.95653616387933 34.63673954076594 94.19 34.41 L 97.46 31.2 Q 97.56 31.09 97.56 30.94 Q 97.55 30.78 97.45 30.67 Q 97.14 30.31 96.78 30.62 L 94.96 32.19 Q 93.58 33.39 93.84 31.58 Z M 34.59 31.1 C 34.59 31.004522063657763 34.55207153746845 30.912954655014133 34.48455844122716 30.84544155877284 C 34.417045344985866 30.77792846253155 34.32547793634223 30.74 34.23 30.74 L 5.61 30.74 C 5.514522063657764 30.74 5.422954655014134 30.77792846253155 5.355441558772842 30.845441558772844 C 5.287928462531549 30.912954655014136 5.249999999999999 31.004522063657767 5.25 31.1 L 5.25 52.16 C 5.249999999999998 52.25547793634223 5.287928462531548 52.347045344985865 5.35544155877284 52.41455844122716 C 5.422954655014133 52.48207153746845 5.514522063657763 52.52 5.61 52.52 L 34.23 52.52 C 34.32547793634223 52.52 34.417045344985866 52.48207153746846 34.48455844122716 52.41455844122716 C 34.55207153746846 52.347045344985865 34.59 52.25547793634223 34.59 52.16 L 34.59 31.1 Z M 64.96 39.53 C 64.85934481639512 39.62898989939099 64.70073913381684 39.63756317953035 64.59 39.55 L 63.97 39.06 C 63.90710719539715 39.0097760062707 63.868868339767054 38.93491654532682 63.8650400234964 38.85452190364303 C 63.86121170722574 38.77412726195924 63.89216419391715 38.69597297519053 63.95 38.64 L 71.79 31.23 C 71.87802918235127 31.152400978546027 71.90833098501346 31.02814177804584 71.8659061186302 30.91873028053114 C 71.82348125224695 30.809318783016437 71.71733124907453 30.737969466411307 71.6 30.74 L 67.11 30.71 C 67.03386887212739 30.711556573815937 66.96165529389833 30.744052684019003 66.91 30.8 L 64.22 33.7 C 64.12859128028948 33.80286753976934 63.975982435328554 33.82406321268058 63.86 33.75 L 63.27 33.37 C 63.19982732544323 33.32776424659246 63.15166529435419 33.25692163055907 63.138200562524226 33.17613323957929 C 63.12473583069426 33.095344848599524 63.14731852517307 33.012711444971494 63.2 32.95 L 64.65 31.21 C 64.72063479039005 31.125880403578936 64.73556015680701 31.00822974547326 64.68816799591718 30.909137045430914 C 64.64077583502737 30.810044345388565 64.539820785028 30.74781475600374 64.43 30.75 L 37.53 30.74 C 37.41549276381057 30.738334957410462 37.31151332979993 30.806567934460915 37.267467429342275 30.91227809555928 C 37.22342152888462 31.01798825665764 37.24818836557819 31.139865513168182 37.33 31.22 L 58.08 52.09 C 58.13266490690289 52.14375089552637 58.20474874626309 52.174040820577346 58.28 52.174040820577346 C 58.3552512537369 52.174040820577346 58.427335093097106 52.14375089552637 58.48 52.09 L 79.17 31.2 C 79.25181163442181 31.119865513168183 79.27657847111537 30.997988256657642 79.23253257065772 30.89227809555928 C 79.18848667020008 30.786567934460916 79.08450723618942 30.718334957410462 78.97 30.72 L 74.34 30.74 C 74.26879729408856 30.74153256889002 74.20085436376063 30.770140118501782 74.15 30.82 L 64.96 39.53 Z M 58.52 53.7 C 58.46180015661935 53.75862533092895 58.382608420854424 53.79159670332159 58.3 53.79159670332159 C 58.21739157914558 53.79159670332159 58.138199843380654 53.75862533092895 58.08 53.7 L 36.45 32.16 C 36.36131488664025 32.07066314564399 36.22741178525382 32.04382560519645 36.111148788254454 32.092085717158454 C 35.994885791255086 32.140345829120456 35.91934993750477 32.25412029434174 35.92 32.38 L 35.93 75.21 C 35.93 75.29221711185025 35.962660620513276 75.37106682484894 36.02079689783217 75.42920310216783 C 36.078933175151064 75.48733937948671 36.15778288814974 75.52 36.24 75.52 L 80.36 75.52 C 80.44221711185025 75.52 80.52106682484894 75.48733937948671 80.57920310216784 75.42920310216783 C 80.63733937948672 75.37106682484894 80.67 75.29221711185025 80.67 75.21 L 80.61 32.49 C 80.61065006249522 32.36412029434174 80.53511420874491 32.25034582912046 80.41885121174555 32.20208571715846 C 80.30258821474618 32.15382560519646 80.16868511335976 32.180663145644 80.08 32.27 L 58.52 53.7 Z M 34.59 54.12 C 34.59 53.910131795064295 34.4198682049357 53.74 34.21 53.74 L 5.63 53.74 C 5.4201317950643 53.74 5.250000000000003 53.910131795064295 5.25 54.12 L 5.25 75.14 C 5.250000000000003 75.3498682049357 5.4201317950643 75.52 5.63 75.52 L 34.21 75.52 C 34.4198682049357 75.52 34.59 75.3498682049357 34.59 75.14 L 34.59 54.12 Z M 110.74 75.54 C 110.88321690451335 75.54 111.0205680174788 75.48310730620268 111.12183766184074 75.38183766184075 C 111.22310730620268 75.2805680174788 111.28 75.14321690451335 111.28 75 L 111.27 54.26 C 111.27 53.961766235091375 111.02823376490863 53.720000000000006 110.73 53.72 L 82.3 53.74 C 82.00176623509137 53.74000000000001 81.76 53.98176623509138 81.76 54.28 L 81.89 74.99 C 81.89 75.13321690451335 81.94689269379732 75.2705680174788 82.04816233815926 75.37183766184074 C 82.14943198252121 75.47310730620268 82.28678309548665 75.53 82.43 75.53 L 110.74 75.54 Z M 57.62 77.03 C 57.62 76.95308721794653 57.58944651629403 76.87932458320583 57.5350609665441 76.8249390334559 C 57.48067541679417 76.77055348370597 57.40691278205347 76.74 57.33 76.74 L 36.21 76.74 C 36.13308721794653 76.74 36.05932458320583 76.77055348370597 36.0049390334559 76.8249390334559 C 35.95055348370597 76.87932458320583 35.92 76.95308721794653 35.92 77.03 L 35.92 105.71 C 35.92 105.78691278205346 35.95055348370597 105.86067541679417 36.0049390334559 105.91506096654409 C 36.05932458320583 105.96944651629403 36.13308721794653 106 36.21 106 L 57.33 106 C 57.40691278205347 106 57.48067541679417 105.96944651629403 57.5350609665441 105.91506096654409 C 57.58944651629403 105.86067541679417 57.62 105.78691278205346 57.62 105.71 L 57.62 77.03 Z M 80.62 77.03 C 80.62 76.95308721794653 80.58944651629403 76.87932458320583 80.53506096654411 76.82493903345589 C 80.48067541679417 76.77055348370597 80.40691278205347 76.74 80.33 76.74 L 59.27 76.74 C 59.193087217946534 76.74 59.11932458320583 76.77055348370597 59.0649390334559 76.82493903345589 C 59.01055348370597 76.87932458320583 58.98 76.95308721794653 58.98 77.03 L 58.98 105.71 C 58.98 105.78691278205346 59.01055348370597 105.86067541679417 59.0649390334559 105.9150609665441 C 59.11932458320583 105.96944651629403 59.193087217946534 106 59.27 106 L 80.33 106 C 80.40691278205347 106 80.48067541679417 105.96944651629403 80.53506096654411 105.9150609665441 C 80.58944651629403 105.86067541679417 80.62 105.78691278205346 80.62 105.71 L 80.62 77.03 Z" stroke-linecap="round"/>
</g>
		<g transform="matrix(1 0 0 1 -95.36 -0.19)">
<path style="stroke: none; stroke-width: 1; stroke-dasharray: none; stroke-linecap: butt; stroke-dashoffset: 0; stroke-linejoin: miter; stroke-miterlimit: 4; fill: rgb(255,255,255); fill-rule: nonzero; opacity: 1;" vector-effect="non-scaling-stroke" transform=" translate(-140.88, -56.81)" d="M 143.62 51.05 L 143.49 68.26 C 143.49 68.35547793634224 143.45207153746847 68.44704534498588 143.38455844122717 68.51455844122717 C 143.31704534498587 68.58207153746847 143.22547793634223 68.62 143.13 68.62 L 138.47 68.6 C 138.27117749006092 68.59999999999998 138.11 68.43882250993907 138.11 68.24 L 138.12 51.09 C 138.12 50.99452206365776 138.08207153746847 50.902954655014135 138.01455844122717 50.835441558772835 C 137.94704534498587 50.76792846253154 137.85547793634223 50.72999999999999 137.76 50.73 L 129.37 50.73 C 129.27452206365777 50.730000000000004 129.18295465501413 50.69207153746845 129.11544155877283 50.62455844122716 C 129.04792846253153 50.557045344985866 129.01 50.46547793634223 129.01 50.37 L 129 45.36 C 129 45.264522063657765 129.03792846253154 45.17295465501413 129.10544155877284 45.10544155877284 C 129.17295465501414 45.037928462531546 129.26452206365778 44.99999999999999 129.36 45 L 152.4 45 C 152.59882250993908 45.00000000000001 152.76 45.16117749006092 152.76 45.36 L 152.75 50.39 C 152.75 50.485477936342235 152.71207153746846 50.57704534498587 152.64455844122716 50.64455844122716 C 152.57704534498586 50.712071537468454 152.48547793634222 50.75000000000001 152.39 50.75 L 143.98 50.69 C 143.7811774900609 50.690000000000005 143.62 50.85117749006092 143.62 51.05 Z" stroke-linecap="round"/>
</g>
		<g transform="matrix(1 0 0 1 -67.53 -0.14)">
<path style="stroke: none; stroke-width: 1; stroke-dasharray: none; stroke-linecap: butt; stroke-dashoffset: 0; stroke-linejoin: miter; stroke-miterlimit: 4; fill: rgb(255,255,255); fill-rule: nonzero; opacity: 1;" vector-effect="non-scaling-stroke" transform=" translate(-168.72, -56.85)" d="M 162.64 63.28 L 180.21 63.27 C 180.38673111994586 63.27000000000001 180.53 63.413268880054154 180.53 63.59 L 180.52 68.39 C 180.52 68.47486927674866 180.48628581108306 68.55626252887633 180.4262741699797 68.6162741699797 C 180.36626252887632 68.67628581108308 180.28486927674865 68.71 180.2 68.71 L 157.17 68.71 C 156.99326888005413 68.71 156.85 68.56673111994584 156.85 68.39 L 156.86 45.32 C 156.86 45.14326888005415 157.00326888005415 45.00000000000001 157.18 45 L 180.21 45 C 180.38673111994586 45.00000000000001 180.53 45.14326888005415 180.53 45.32 L 180.52 50.43 C 180.52 50.514869276748655 180.48628581108306 50.59626252887633 180.4262741699797 50.6562741699797 C 180.36626252887632 50.716285811083075 180.28486927674865 50.75000000000001 180.2 50.75 L 162.68 50.75 C 162.50326888005415 50.75000000000001 162.36 50.89326888005415 162.36 51.07 L 162.38 53.95 C 162.38 54.12673111994585 162.52326888005413 54.269999999999996 162.7 54.27 L 180.19 54.26 C 180.36673111994585 54.260000000000005 180.51 54.40326888005415 180.51 54.58 L 180.58 59.39 C 180.58 59.474869276748656 180.54628581108307 59.55626252887633 180.4862741699797 59.616274169979704 C 180.42626252887632 59.676285811083076 180.34486927674865 59.71000000000001 180.26 59.71 L 162.66 59.72 C 162.48326888005414 59.720000000000006 162.34 59.86326888005415 162.34 60.04 L 162.32 62.96 C 162.32 63.13673111994585 162.46326888005413 63.279999999999994 162.64 63.28 Z" stroke-linecap="round"/>
</g>
		<g transform="matrix(1 0 0 1 -39.32 -0.13)">
<path style="stroke: none; stroke-width: 1; stroke-dasharray: none; stroke-linecap: butt; stroke-dashoffset: 0; stroke-linejoin: miter; stroke-miterlimit: 4; fill: rgb(255,255,255); fill-rule: nonzero; opacity: 1;" vector-effect="non-scaling-stroke" transform=" translate(-196.92, -56.86)" d="M 190.74 63.25 L 203.01 63.29 Q 203.57 63.29 203.63 62.74 Q 203.68 62.19 203.93 61.67 Q 204.12 61.27 204.56 61.27 L 208.46 61.26 Q 208.92 61.26 208.96 61.71 C 209.26 64.79 209.12 68.67 205.17 68.7 Q 196.32 68.76 188.23 68.73 C 186.28275417473947 68.718991231523 184.71000722871102 67.14177625439787 184.71 65.2 L 184.7 49.23 C 184.69997385092992 46.91266934757165 186.5726954964942 45.03100869653929 188.89 45.02 Q 196.54 44.97 204.75 45 C 209.11 45.02 209.01 48.89 209.14 52.05 Q 209.17 52.76 208.47 52.75 L 204.21 52.69 C 204.03378460632806 52.686105705171975 203.86890144489251 52.60229244285816 203.76190547162923 52.462224986949884 C 203.65490949836598 52.32215753104162 203.61741183823855 52.141035899672985 203.66 51.97 Q 203.75 51.61 203.66 51.24 Q 203.52 50.72 202.98 50.72 L 190.74 50.76 Q 190.24 50.76 190.24 51.26 L 190.23 62.74 Q 190.23 63.24 190.74 63.25 Z" stroke-linecap="round"/>
</g>
		<g transform="matrix(1 0 0 1 -10.49 -0.13)">
<path style="stroke: none; stroke-width: 1; stroke-dasharray: none; stroke-linecap: butt; stroke-dashoffset: 0; stroke-linejoin: miter; stroke-miterlimit: 4; fill: rgb(255,255,255); fill-rule: nonzero; opacity: 1;" vector-effect="non-scaling-stroke" transform=" translate(-225.75, -56.87)" d="M 219.1 54.34 L 232.4 54.23 C 232.49813010124063 54.23 232.59224104901327 54.191017969064795 232.66162950903902 54.121629509039025 C 232.7310179690648 54.05224104901325 232.77 53.958130101240634 232.77 53.86 L 232.78 45.38 C 232.78 45.28186989875937 232.81898203093522 45.18775895098675 232.88837049096097 45.11837049096098 C 232.95775895098674 45.0489820309352 233.05186989875938 45.01 233.15 45.01 L 237.93 45 C 238.02813010124063 45 238.12224104901327 45.0389820309352 238.19162950903902 45.10837049096097 C 238.2610179690648 45.17775895098675 238.3 45.27186989875936 238.3 45.37 L 238.28 68.36 C 238.28 68.45813010124063 238.24101796906479 68.55224104901325 238.17162950903904 68.62162950903902 C 238.10224104901326 68.6910179690648 238.00813010124062 68.73 237.91 68.73 L 233.12 68.71 C 232.9156546425626 68.71 232.75 68.5443453574374 232.75 68.34 L 232.82 60.12 C 232.82 60.02186989875936 232.78101796906478 59.92775895098675 232.711629509039 59.85837049096097 C 232.64224104901325 59.7889820309352 232.54813010124062 59.75 232.45 59.75 L 219.12 59.69 C 219.02186989875938 59.69 218.92775895098674 59.7289820309352 218.85837049096097 59.79837049096098 C 218.78898203093522 59.86775895098675 218.75 59.96186989875937 218.75 60.06 L 218.7 68.26 C 218.70007324274005 68.46050297095 218.54042974158756 68.62458101380118 218.34 68.63 L 213.58 68.73 C 213.48014894001355 68.73269967014494 213.38344835329005 68.6949127205496 213.3118818025458 68.62522950008811 C 213.24031525180155 68.55554627962661 213.19996351121628 68.45988754210552 213.2 68.36 L 213.2 45.37 C 213.2 45.27186989875936 213.2389820309352 45.17775895098675 213.30837049096098 45.10837049096097 C 213.37775895098673 45.0389820309352 213.47186989875937 45 213.57 45 L 218.38 45 C 218.47813010124062 45 218.57224104901326 45.0389820309352 218.641629509039 45.10837049096097 C 218.71101796906478 45.17775895098675 218.75 45.27186989875936 218.75 45.37 L 218.73 53.97 C 218.73 54.068130101240634 218.7689820309352 54.162241049013254 218.83837049096095 54.231629509039024 C 218.90775895098673 54.3010179690648 219.00186989875937 54.34 219.1 54.34 Z" stroke-linecap="round"/>
</g>
		<g transform="matrix(1 0 0 1 18.06 -0.13)">
<path style="stroke: none; stroke-width: 1; stroke-dasharray: none; stroke-linecap: butt; stroke-dashoffset: 0; stroke-linejoin: miter; stroke-miterlimit: 4; fill: rgb(255,255,255); fill-rule: nonzero; opacity: 1;" vector-effect="non-scaling-stroke" transform=" translate(-254.31, -56.87)" d="M 247.99 51.06 L 247.98 53.97 C 247.98 54.054869276748654 248.01371418891694 54.13626252887633 248.0737258300203 54.1962741699797 C 248.13373747112368 54.256285811083075 248.21513072325135 54.290000000000006 248.3 54.29 L 265.82 54.26 C 265.9967311199458 54.260000000000005 266.14 54.40326888005415 266.14 54.58 L 266.12 59.34 C 266.12 59.51673111994585 265.97673111994584 59.65999999999999 265.8 59.66 L 248.31 59.67 C 248.13326888005415 59.67000000000001 247.99 59.81326888005415 247.99 59.99 L 247.99 68.37 C 247.99 68.45486927674867 247.95628581108306 68.53626252887634 247.8962741699797 68.59627416997971 C 247.83626252887632 68.65628581108308 247.75486927674865 68.69 247.67 68.69 L 242.79 68.73 C 242.70513072325133 68.73 242.62373747112366 68.69628581108307 242.5637258300203 68.6362741699797 C 242.50371418891692 68.57626252887633 242.47 68.49486927674864 242.47 68.41 L 242.47 45.32 C 242.47 45.14326888005415 242.61326888005414 45.00000000000001 242.79 45 L 265.81 45 C 265.98673111994583 45.00000000000001 266.13 45.14326888005415 266.13 45.32 L 266.13 50.43 C 266.13 50.60673111994585 265.98673111994583 50.74999999999999 265.81 50.75 L 248.31 50.74 C 248.13326888005415 50.74000000000001 247.99 50.88326888005415 247.99 51.06 Z" stroke-linecap="round"/>
</g>
		<g transform="matrix(1 0 0 1 45.88 -0.12)">
<path style="stroke: none; stroke-width: 1; stroke-dasharray: none; stroke-linecap: butt; stroke-dashoffset: 0; stroke-linejoin: miter; stroke-miterlimit: 4; fill: rgb(255,255,255); fill-rule: nonzero; opacity: 1;" vector-effect="non-scaling-stroke" transform=" translate(-282.12, -56.88)" d="M 293.963 64.6414 C 293.959161071999 65.7420505158752 293.5182441965406 66.79609549122526 292.7372474870566 67.57165363555731 C 291.9562507775727 68.34721177988938 290.89915046892804 68.78075236459651 289.7985 68.7769 L 274.3586 68.723 C 273.2579494841248 68.71916107199901 272.20390450877477 68.27824419654056 271.4283463644427 67.49724748705661 C 270.6527882201106 66.71625077757267 270.21924763540346 65.65915046892806 270.2231 64.5585 L 270.277 49.1186 C 270.280838928001 48.0179494841248 270.7217558034594 46.96390450877474 271.5027525129434 46.18834636444269 C 272.28374922242733 45.41278822011063 273.34084953107197 44.97924763540349 274.4415 44.9831 L 289.8814 45.037 C 290.9820505158752 45.040838928000994 292.03609549122524 45.481755803459436 292.8116536355573 46.26275251294338 C 293.5872117798894 47.04374922242732 294.02075236459655 48.100849531071944 294.0169 49.2015 L 293.963 64.6414 Z M 275.77 58.63 C 275.7709438886455 58.757404470762275 275.8473769726449 58.87211063750393 275.96459535754695 58.92203698662887 C 276.081813742449 58.97196333575381 276.2174816349578 58.94759647382121 276.31 58.86 L 283.96 51.29 C 284.05340330908325 51.19965593953491 284.08289760078617 51.061798180987154 284.0346364899925 50.941145404002995 C 283.9863753791989 50.82049262701884 283.869943127588 50.74100548579662 283.74 50.74 L 276.14 50.71 C 275.96326888005416 50.71000000000001 275.82 50.85326888005415 275.82 51.03 L 275.77 58.63 Z M 288.48 55.22 C 288.47966457092264 55.08274122885357 288.39683041841585 54.95914645074043 288.2700006247657 54.90666515681624 C 288.1431708311155 54.85418386289205 287.9972242627257 54.88311075649623 287.9 54.98 L 280.23 62.68 C 280.13311075649625 62.777224262725724 280.1041838628921 62.92317083111556 280.1566651568163 63.05000062476568 C 280.2091464507405 63.1768304184158 280.3327412288536 63.25966457092261 280.47 63.26 L 288.16 63.25 C 288.3477768149425 63.249999999999986 288.5 63.097776814942456 288.5 62.91 L 288.48 55.22 Z" stroke-linecap="round"/>
</g>
		<g transform="matrix(1 0 0 1 72.61 -0.14)">
<path style="stroke: none; stroke-width: 1; stroke-dasharray: none; stroke-linecap: butt; stroke-dashoffset: 0; stroke-linejoin: miter; stroke-miterlimit: 4; fill: rgb(255,255,255); fill-rule: nonzero; opacity: 1;" vector-effect="non-scaling-stroke" transform=" translate(-308.86, -56.86)" d="M 303.94 63.27 L 319.3 63.27 C 319.41049375671247 63.26996712950618 319.51632344387656 63.31453343898159 319.59350739421535 63.39359992469454 C 319.6706913445542 63.472666410407484 319.71269497468444 63.5795391088921 319.71 63.69 L 319.64 68.3 C 319.63457102663125 68.52252209521623 319.45258830208843 68.70006621672142 319.23 68.7 L 298.43 68.72 C 298.3212612391658 68.72 298.2169761348772 68.67680369545019 298.1400862197135 68.5999137802865 C 298.0631963045498 68.5230238651228 298.02 68.41873876083422 298.02 68.31 L 298 45.41 C 298 45.30126123916578 298.04319630454984 45.1969761348772 298.1200862197135 45.12008621971351 C 298.1969761348772 45.04319630454981 298.3012612391658 44.99999999999999 298.41 45 L 303.15 45 C 303.2587387608342 44.99999999999999 303.3630238651228 45.04319630454981 303.4399137802865 45.12008621971351 C 303.51680369545016 45.1969761348772 303.56 45.30126123916578 303.56 45.41 L 303.53 62.86 C 303.53 62.96873876083422 303.5731963045498 63.0730238651228 303.6500862197135 63.1499137802865 C 303.7269761348772 63.226803695450194 303.83126123916577 63.27000000000001 303.94 63.27 Z" stroke-linecap="round"/>
</g>
		<g transform="matrix(1 0 0 1 99.4 -0.13)">
<path style="stroke: none; stroke-width: 1; stroke-dasharray: none; stroke-linecap: butt; stroke-dashoffset: 0; stroke-linejoin: miter; stroke-miterlimit: 4; fill: rgb(255,255,255); fill-rule: nonzero; opacity: 1;" vector-effect="non-scaling-stroke" transform=" translate(-335.65, -56.87)" d="M 323.8 45.46 C 323.8 45.1783347775863 324.0283347775863 44.95000000000001 324.31 44.95 L 343.1 45.02 C 344.2882283236911 45.02256013149542 345.4267322376124 45.50443707733589 346.2650299764936 46.35961329418121 C 347.1033277153749 47.21478951102653 347.57274301012603 48.37320598611363 347.57 49.57999999999999 L 347.51 64.24 C 347.5043006308575 66.75276649363124 345.4941092674242 68.78534306155706 343.02 68.78 L 324.23 68.71 C 323.9483347775863 68.71 323.72 68.4816652224137 323.72 68.2 L 323.8 45.46 Z M 342 51 C 342 50.856405965044 341.883594034956 50.74000000000001 341.74 50.74 L 329.54 50.74 C 329.47104371264174 50.73999999999999 329.404911695288 50.767392778494994 329.3561522368915 50.81615223689148 C 329.307392778495 50.86491169528797 329.28 50.93104371264171 329.28 51 L 329.28 63.02 C 329.28 63.08895628735829 329.307392778495 63.15508830471203 329.3561522368915 63.20384776310852 C 329.404911695288 63.25260722150501 329.47104371264174 63.280000000000015 329.54 63.28 L 341.74 63.28 C 341.883594034956 63.279999999999994 342 63.163594034956006 342 63.02 L 342 51 Z" stroke-linecap="round"/>
</g>
		<g transform="matrix(1 0 0 1 135.73 -0.13)">
<path style="stroke: none; stroke-width: 1; stroke-dasharray: none; stroke-linecap: butt; stroke-dashoffset: 0; stroke-linejoin: miter; stroke-miterlimit: 4; fill: rgb(255,255,255); fill-rule: nonzero; opacity: 1;" vector-effect="non-scaling-stroke" transform=" translate(-371.98, -56.87)" d="M 360.09 45.51 C 360.09 45.36943526038503 360.14583912539365 45.23462768654858 360.24523340597113 45.135233405971114 C 360.34462768654856 45.03583912539366 360.47943526038506 44.97999999999999 360.62 44.98 L 379.5 45.01 C 380.66964881258616 45.01258005761676 381.79033543447895 45.500787190516576 382.6155032679514 46.36721341566268 C 383.4406711014239 47.233639640808796 383.9027211073667 48.407305967136345 383.9 49.63 L 383.88 64.15 C 383.87434552177155 66.69593353821367 381.89548099098334 68.75538531233717 379.46 68.75 L 360.58 68.72 C 360.28728908258967 68.71999999999998 360.05 68.4827109174103 360.05 68.19 L 360.09 45.51 Z M 378.2695 51.009 C 378.26939399195106 50.93739152353639 378.2408459286547 50.868758064094344 378.1901360748625 50.8181982394554 C 378.1394262210703 50.767638414816446 378.0707084762308 50.73929383478569 377.9991 50.7394 L 365.8791 50.7606 C 365.8074915098745 50.76073248552915 365.7388685603982 50.78930597008652 365.6883274798392 50.840034587122574 C 365.6377863992801 50.89076320415863 365.6094672688999 50.95949151032929 365.6096 51.0311 L 365.6305 63.011 C 365.6306060080489 63.08260847646361 365.65915407134526 63.15124193590566 365.7098639251375 63.201801760544605 C 365.76057377892965 63.25236158518356 365.8292915237692 63.28070616521431 365.9009 63.2806 L 378.0209 63.2594 C 378.09250849012545 63.25926751447085 378.1611314396018 63.23069402991348 378.2116725201608 63.17996541287742 C 378.26221360071986 63.12923679584137 378.2905327311001 63.0605084896707 378.2904 62.9889 L 378.2695 51.009 Z" stroke-linecap="round"/>
</g>
		<g transform="matrix(1 0 0 1 163.55 -0.15)">
<path style="stroke: none; stroke-width: 1; stroke-dasharray: none; stroke-linecap: butt; stroke-dashoffset: 0; stroke-linejoin: miter; stroke-miterlimit: 4; fill: rgb(255,255,255); fill-rule: nonzero; opacity: 1;" vector-effect="non-scaling-stroke" transform=" translate(-399.8, -56.84)" d="M 393.45 51.05 L 393.38 53.97 C 393.37729278172964 54.0565883432357 393.40980801566786 54.140574525107496 393.4701155847368 54.20276670570979 C 393.53042315380566 54.26495888631209 393.6133693563174 54.3000423107793 393.7 54.3 L 411.28 54.27 C 411.36486927674866 54.26999999999999 411.44626252887633 54.30371418891692 411.5062741699797 54.36372583002029 C 411.5662858110831 54.423737471123665 411.6 54.50513072325134 411.6 54.59 L 411.64 59.35 C 411.64 59.52673111994585 411.4967311199458 59.669999999999995 411.32 59.67 L 393.75 59.7 C 393.5771015954007 59.69991555696436 393.4354030551673 59.83718601781547 393.43 60.01 L 393.36 62.95 C 393.35729278172965 63.03658834323571 393.3898080156679 63.1205745251075 393.4501155847368 63.182766705709795 C 393.5104231538057 63.24495888631209 393.5933693563174 63.2800423107793 393.68 63.28 L 411.16 63.34 C 411.33289840459935 63.339915556964364 411.47459694483274 63.47718601781547 411.48 63.65 L 411.6 68.31 C 411.6027072182704 68.39658834323572 411.57019198433215 68.48057452510751 411.50988441526323 68.54276670570981 C 411.4495768461943 68.6049588863121 411.3666306436826 68.64004231077932 411.28 68.64 L 388.29 68.69 C 388.1132688800542 68.69 387.97 68.54673111994585 387.97 68.37 L 387.93 45.32 C 387.93 45.14326888005415 388.0732688800542 45.00000000000001 388.25 45 L 411.34 45 C 411.42486927674867 44.999999999999986 411.50626252887633 45.03371418891692 411.5662741699797 45.09372583002029 C 411.6262858110831 45.15373747112366 411.66 45.23513072325134 411.66 45.32 L 411.6 50.42 C 411.6 50.504869276748664 411.5662858110831 50.58626252887634 411.5062741699797 50.64627416997971 C 411.44626252887633 50.706285811083085 411.36486927674866 50.740000000000016 411.28 50.74 L 393.77 50.74 C 393.59710159540066 50.73991555696436 393.45540305516727 50.87718601781547 393.45 51.05 Z" stroke-linecap="round"/>
</g>
		<g transform="matrix(1 0 0 1 191.75 -0.15)">
<path style="stroke: none; stroke-width: 1; stroke-dasharray: none; stroke-linecap: butt; stroke-dashoffset: 0; stroke-linejoin: miter; stroke-miterlimit: 4; fill: rgb(255,255,255); fill-rule: nonzero; opacity: 1;" vector-effect="non-scaling-stroke" transform=" translate(-427.99, -56.85)" d="M 421.5 50.74 C 421.3619288125423 50.74 421.25 50.856405965044 421.25 51 L 421.25 54 C 421.2553945319188 54.161632876761985 421.38366485750487 54.28990320234803 421.54 54.29 Q 428.66 54.24 435.99 54.26 C 441.81 54.28 440.42 62.01 439.98 65.66 C 439.7767688340075 67.4060221094925 438.29285565273 68.72218858332121 436.53 68.72 Q 428.49 68.72 419.57 68.69 C 415.78 68.68 415.46 64.61 415.76 61.74 Q 415.81 61.25 416.3 61.25 L 420.75 61.29 Q 421.21 61.29 421.23 61.75 L 421.27 62.66 Q 421.29 63.28 421.91 63.28 L 434.22 63.27 C 434.4906195274171 63.269999999999975 434.71 63.05061952741707 434.71 62.78 L 434.72 60.23 Q 434.73 59.73 434.23 59.73 L 419.2 59.71 C 417.32714479623394 59.7103877907629 415.79811038632727 58.21246745315083 415.76 56.34 C 415.67 51.72 414.03 45.08 421.13 45.03 Q 428.69 44.97 436.25 45.01 C 439.64 45.03 440.46 48.9 440.22 52.18 Q 440.17 52.8 439.55 52.78 L 435.09 52.67 Q 434.48 52.65 434.65 52.07 Q 434.77 51.66 434.66 51.24 Q 434.52 50.75 434.01 50.75 L 421.5 50.74 Z" stroke-linecap="round"/>
</g>
		<g transform="matrix(1 0 0 1 220.14 -0.12)">
<path style="stroke: none; stroke-width: 1; stroke-dasharray: none; stroke-linecap: butt; stroke-dashoffset: 0; stroke-linejoin: miter; stroke-miterlimit: 4; fill: rgb(255,255,255); fill-rule: nonzero; opacity: 1;" vector-effect="non-scaling-stroke" transform=" translate(-456.38, -56.88)" d="M 450.26 53.94 L 460.51 45.07 C 460.5633071049713 45.02535252383039 460.6304681819216 45.00060896916451 460.7 45 L 468.21 45.01 C 468.33753529180603 45.006811315224965 468.45313755268376 45.08462957273122 468.4981788838871 45.20398910041995 C 468.5432202150904 45.32334862810869 468.5078474695182 45.458138586162114 468.41 45.54 L 458.09 54.54 C 457.97011235438714 54.64446678145932 457.9525646283873 54.82433097295772 458.05 54.95 L 468.34 68.18 C 468.4131756066079 68.26940823173268 468.4285056462228 68.39289270135663 468.3794136965904 68.49747989839958 C 468.330321746958 68.60206709544251 468.2255327269268 68.66916914931423 468.11 68.67 L 462.04 68.75 C 461.9455728090001 68.75 461.85665631459995 68.70554175279993 461.8 68.63 L 453.86 58.45 C 453.80752465192523 58.384708763013364 453.73014170078676 58.344330225977785 453.6465705323794 58.33863219176819 C 453.56299936397215 58.332934157558604 453.4808518675088 58.36243561862133 453.42 58.42 L 449.87 61.61 C 449.80729824195083 61.666071095510674 449.77101679269487 61.74589028387372 449.77 61.83 L 449.76 68.42 C 449.76 68.49956494695186 449.72839294789037 68.57587112082156 449.67213203435597 68.63213203435596 C 449.6158711208215 68.68839294789038 449.5395649469518 68.72 449.46 68.72 L 444.56 68.64 C 444.48043505304815 68.64 444.4041288791785 68.60839294789038 444.347867965644 68.55213203435596 C 444.2916070521096 68.49587112082156 444.26 68.41956494695187 444.26 68.34 L 444.25 45.3 C 444.25 45.220435053048135 444.2816070521096 45.14412887917844 444.337867965644 45.08786796564403 C 444.3941288791785 45.03160705210962 444.47043505304816 45 444.55 45 L 449.5 45 C 449.57956494695185 45 449.65587112082153 45.03160705210962 449.712132034356 45.08786796564403 C 449.7683929478904 45.14412887917844 449.8 45.220435053048135 449.8 45.3 L 449.76 53.71 C 449.75742876310284 53.82946564859697 449.8260003206268 53.93906555822134 449.9345588569353 53.98900248492325 C 450.0431173932438 54.03893941162516 450.17095969499877 54.019689877269094 450.26 53.94 Z" stroke-linecap="round"/>
</g>
</g>
</g>
</svg>