<?xml version="1.0" encoding="UTF-8" standalone="no"?>
<!DOCTYPE svg PUBLIC "-//W3C//DTD SVG 1.1//EN" "http://www.w3.org/Graphics/SVG/1.1/DTD/svg11.dtd">
<svg xmlns="http://www.w3.org/2000/svg" version="1.1" viewBox="0.00 0.00 648.00 470.00">
<path fill="none" stroke-width="1.00" stroke="#ffffff" vector-effect="non-scaling-stroke" d="
  M 169.98 254.47
  L 169.94 283.78
  A 0.72 0.72 0.0 0 1 169.22 284.50
  L 123.30 284.50
  A 0.72 0.72 0.0 0 1 122.58 283.78
  L 122.57 254.47
  A 0.72 0.72 0.0 0 0 121.85 253.75
  L 92.71 253.75
  A 0.72 0.72 0.0 0 1 91.99 253.03
  L 91.97 207.23
  A 0.72 0.72 0.0 0 1 92.69 206.51
  L 122.77 206.50
  A 0.72 0.72 0.0 0 0 123.28 206.29
  L 145.77 183.79
  A 0.72 0.72 0.0 0 1 146.79 183.79
  L 169.29 206.30
  A 0.72 0.72 0.0 0 0 169.80 206.51
  L 199.91 206.50
  A 0.72 0.72 0.0 0 1 200.63 207.22
  L 200.63 253.02
  A 0.72 0.72 0.0 0 1 199.91 253.74
  L 170.70 253.75
  A 0.72 0.72 0.0 0 0 169.98 254.47
  Z
  M 151.07 203.27
  A 0.69 0.69 0.0 0 1 151.04 202.32
  L 156.76 195.99
  Q 157.00 195.73 156.75 195.48
  L 154.68 193.51
  Q 154.33 193.17 153.99 193.52
  Q 152.36 195.24 150.29 197.04
  Q 150.12 197.18 149.99 197.18
  Q 149.72 197.17 149.48 196.86
  A 0.56 0.56 0.0 0 1 149.53 196.12
  L 153.03 192.65
  A 0.59 0.58 -44.7 0 0 153.04 191.83
  L 146.69 185.30
  A 0.47 0.47 0.0 0 0 146.02 185.30
  L 125.67 205.72
  Q 124.89 206.50 125.99 206.50
  L 154.00 206.50
  Q 154.52 206.50 154.89 206.14
  L 160.82 200.31
  A 0.44 0.43 -44.5 0 0 160.83 199.69
  L 158.27 197.02
  Q 157.92 196.65 157.57 197.03
  L 151.82 203.47
  A 0.38 0.37 -45.5 0 1 151.28 203.48
  L 151.07 203.27
  Z
  M 156.88 205.97
  A 0.31 0.31 0.0 0 0 157.09 206.50
  L 161.82 206.52
  A 0.31 0.31 0.0 0 0 162.04 206.43
  L 164.59 203.92
  A 0.31 0.31 0.0 0 0 164.59 203.48
  L 162.30 201.16
  A 0.31 0.31 0.0 0 0 161.86 201.15
  L 156.88 205.97
  Z
  M 165.42 204.97
  Q 164.64 205.18 164.44 206.21
  Q 164.36 206.59 164.75 206.57
  L 166.83 206.49
  Q 167.43 206.46 167.15 205.94
  Q 166.95 205.55 166.63 205.26
  Q 166.09 204.78 165.42 204.97
  Z
  M 181.64 209.24
  Q 181.70 208.80 181.91 208.45
  Q 182.33 207.75 181.51 207.75
  L 170.47 207.76
  Q 169.96 207.76 169.96 208.28
  L 169.96 228.98
  Q 169.96 229.49 170.48 229.49
  L 198.74 229.50
  Q 199.24 229.51 199.24 229.01
  L 199.26 221.73
  Q 199.26 220.97 198.72 221.50
  L 195.48 224.72
  Q 194.96 225.24 194.47 224.69
  L 194.30 224.49
  A 0.33 0.33 0.0 0 1 194.31 224.04
  L 199.47 218.74
  A 0.45 0.45 0.0 0 0 199.46 218.11
  L 199.21 217.86
  Q 199.03 217.68 198.85 217.85
  L 192.06 224.30
  A 0.64 0.63 -42.2 0 1 191.15 224.26
  L 190.97 224.05
  A 0.42 0.42 0.0 0 1 190.99 223.47
  L 198.72 216.01
  A 1.79 1.76 69.2 0 0 199.26 214.78
  L 199.29 213.74
  Q 199.31 212.87 198.69 213.48
  L 188.42 223.68
  A 0.35 0.35 0.0 0 1 187.92 223.67
  L 187.73 223.47
  A 0.71 0.71 0.0 0 1 187.74 222.47
  L 198.86 211.51
  A 1.69 1.68 66.4 0 0 199.36 210.22
  L 199.32 209.71
  Q 199.27 208.92 198.72 209.48
  L 184.94 223.40
  Q 184.55 223.79 184.24 223.35
  L 184.02 223.03
  A 0.54 0.54 0.0 0 1 184.08 222.32
  L 198.03 208.34
  Q 198.62 207.74 197.79 207.73
  L 196.89 207.71
  Q 195.96 207.69 195.30 208.35
  L 183.63 219.98
  A 0.35 0.35 0.0 0 1 183.04 219.83
  L 182.93 219.43
  A 0.88 0.86 60.5 0 1 183.15 218.59
  L 193.49 208.22
  Q 194.05 207.66 193.26 207.71
  L 192.25 207.76
  A 1.82 1.80 -68.4 0 0 191.05 208.29
  L 183.39 215.84
  A 0.35 0.35 0.0 0 1 182.89 215.84
  L 182.67 215.62
  A 0.65 0.65 0.0 0 1 182.67 214.70
  L 189.21 208.17
  Q 189.80 207.58 188.97 207.65
  L 187.89 207.75
  A 0.40 0.37 18.6 0 0 187.64 207.86
  L 182.69 212.72
  A 0.31 0.31 0.0 0 1 182.24 212.69
  L 182.01 212.38
  A 0.62 0.61 48.8 0 1 182.06 211.57
  L 185.50 208.14
  Q 185.75 207.88 185.42 207.74
  L 185.13 207.61
  Q 184.89 207.51 184.70 207.68
  L 182.44 209.66
  A 0.48 0.48 0.0 0 1 181.64 209.24
  Z
  M 122.58 208.16
  A 0.40 0.40 0.0 0 0 122.18 207.76
  L 93.66 207.76
  A 0.40 0.40 0.0 0 0 93.26 208.16
  L 93.26 229.10
  A 0.40 0.40 0.0 0 0 93.66 229.50
  L 122.18 229.50
  A 0.40 0.40 0.0 0 0 122.58 229.10
  L 122.58 208.16
  Z
  M 151.48 209.58
  L 152.54 208.34
  Q 153.03 207.76 152.28 207.76
  L 125.57 207.75
  A 0.29 0.29 0.0 0 0 125.37 208.24
  L 145.88 228.89
  A 0.57 0.56 44.6 0 0 146.67 228.89
  L 167.18 208.18
  Q 167.63 207.73 167.00 207.73
  L 162.95 207.73
  Q 162.22 207.73 161.70 208.23
  L 153.11 216.39
  Q 152.74 216.74 152.38 216.39
  L 152.13 216.13
  A 0.48 0.48 0.0 0 1 152.14 215.44
  L 159.63 208.39
  Q 159.99 208.05 159.51 207.92
  Q 155.14 206.68 152.66 210.31
  Q 152.14 211.07 151.51 210.42
  Q 151.12 210.01 151.48 209.58
  Z
  M 146.51 230.71
  A 0.30 0.30 0.0 0 1 146.09 230.71
  L 124.43 209.15
  A 0.30 0.30 0.0 0 0 123.92 209.36
  L 123.94 252.21
  A 0.30 0.30 0.0 0 0 124.24 252.51
  L 168.37 252.50
  A 0.30 0.30 0.0 0 0 168.67 252.20
  L 168.60 209.48
  A 0.30 0.30 0.0 0 0 168.09 209.27
  L 146.51 230.71
  Z
  M 122.58 231.16
  A 0.41 0.41 0.0 0 0 122.17 230.75
  L 93.67 230.75
  A 0.41 0.41 0.0 0 0 93.26 231.16
  L 93.26 252.10
  A 0.41 0.41 0.0 0 0 93.67 252.51
  L 122.17 252.51
  A 0.41 0.41 0.0 0 0 122.58 252.10
  L 122.58 231.16
  Z
  M 169.36 240.12
  Q 168.95 241.10 169.62 241.91
  A 1.40 1.36 -66.1 0 1 169.94 242.77
  L 169.98 252.00
  Q 169.99 252.51 170.50 252.51
  L 198.74 252.52
  A 0.52 0.51 0.0 0 0 199.26 252.01
  L 199.25 231.25
  Q 199.25 230.74 198.75 230.74
  L 170.50 230.76
  Q 170.01 230.76 170.00 231.25
  C 169.91 234.03 170.43 237.54 169.36 240.12
  Z
  M 145.58 254.02
  A 0.27 0.27 0.0 0 0 145.31 253.75
  L 124.21 253.75
  A 0.27 0.27 0.0 0 0 123.94 254.02
  L 123.94 282.74
  A 0.27 0.27 0.0 0 0 124.21 283.01
  L 145.31 283.01
  A 0.27 0.27 0.0 0 0 145.58 282.74
  L 145.58 254.02
  Z
  M 168.60 254.02
  A 0.26 0.26 0.0 0 0 168.34 253.76
  L 147.24 253.76
  A 0.26 0.26 0.0 0 0 146.98 254.02
  L 146.98 282.74
  A 0.26 0.26 0.0 0 0 147.24 283.00
  L 168.34 283.00
  A 0.26 0.26 0.0 0 0 168.60 282.74
  L 168.60 254.02
  Z"
/>
<path fill="none" stroke-width="1.00" stroke="#ffffff" vector-effect="non-scaling-stroke" d="
  M 231.68 228.17
  L 231.68 245.32
  A 0.42 0.42 0.0 0 1 231.26 245.74
  L 226.50 245.74
  A 0.42 0.42 0.0 0 1 226.08 245.32
  L 226.13 228.16
  A 0.42 0.42 0.0 0 0 225.71 227.74
  L 217.43 227.75
  A 0.42 0.42 0.0 0 1 217.01 227.33
  L 217.00 222.42
  A 0.42 0.42 0.0 0 1 217.42 222.00
  L 240.35 222.00
  A 0.42 0.42 0.0 0 1 240.77 222.42
  L 240.77 227.33
  A 0.42 0.42 0.0 0 1 240.35 227.75
  L 232.10 227.75
  A 0.42 0.42 0.0 0 0 231.68 228.17
  Z"
/>
<path fill="none" stroke-width="1.00" stroke="#ffffff" vector-effect="non-scaling-stroke" d="
  M 250.35 237.12
  L 250.38 239.89
  A 0.37 0.37 0.0 0 0 250.75 240.25
  L 268.21 240.25
  A 0.37 0.37 0.0 0 1 268.58 240.62
  L 268.58 245.37
  A 0.37 0.37 0.0 0 1 268.21 245.74
  L 245.23 245.73
  A 0.37 0.37 0.0 0 1 244.86 245.36
  L 244.86 222.37
  A 0.37 0.37 0.0 0 1 245.23 222.00
  L 268.16 222.00
  A 0.37 0.37 0.0 0 1 268.53 222.36
  L 268.60 227.37
  A 0.37 0.37 0.0 0 1 268.23 227.75
  L 250.74 227.75
  A 0.37 0.37 0.0 0 0 250.37 228.12
  L 250.39 230.88
  A 0.37 0.37 0.0 0 0 250.76 231.25
  L 268.24 231.25
  A 0.37 0.37 0.0 0 1 268.61 231.62
  L 268.58 236.38
  A 0.37 0.37 0.0 0 1 268.21 236.75
  L 250.72 236.74
  A 0.37 0.37 0.0 0 0 250.35 237.12
  Z"
/>
<path fill="none" stroke-width="1.00" stroke="#ffffff" vector-effect="non-scaling-stroke" d="
  M 291.52 239.76
  L 291.59 238.81
  Q 291.63 238.25 292.19 238.25
  L 296.47 238.26
  Q 296.92 238.26 296.96 238.71
  C 297.24 241.63 297.27 243.90 294.77 245.49
  A 1.65 1.64 -60.8 0 1 293.90 245.74
  L 276.48 245.74
  A 3.77 3.77 0.0 0 1 272.71 241.98
  L 272.68 227.01
  Q 272.68 221.97 277.71 221.99
  Q 284.84 222.02 292.75 221.99
  C 297.09 221.97 297.06 226.01 297.13 229.15
  Q 297.14 229.73 296.55 229.74
  L 292.02 229.76
  Q 291.54 229.76 291.54 229.28
  L 291.53 228.26
  Q 291.53 227.75 291.01 227.75
  L 278.74 227.75
  Q 278.24 227.75 278.24 228.26
  L 278.24 239.74
  Q 278.24 240.25 278.74 240.25
  L 290.99 240.25
  Q 291.49 240.25 291.52 239.76
  Z"
/>
<path fill="none" stroke-width="1.00" stroke="#ffffff" vector-effect="non-scaling-stroke" d="
  M 306.76 237.12
  L 306.75 245.33
  A 0.37 0.37 0.0 0 1 306.38 245.70
  L 301.56 245.76
  A 0.37 0.37 0.0 0 1 301.19 245.39
  L 301.13 222.37
  A 0.37 0.37 0.0 0 1 301.50 222.00
  L 306.38 222.01
  A 0.37 0.37 0.0 0 1 306.75 222.38
  L 306.76 230.88
  A 0.37 0.37 0.0 0 0 307.13 231.25
  L 320.40 231.25
  A 0.37 0.37 0.0 0 0 320.77 230.88
  L 320.78 222.38
  A 0.37 0.37 0.0 0 1 321.15 222.01
  L 325.93 222.00
  A 0.37 0.37 0.0 0 1 326.30 222.37
  L 326.28 245.36
  A 0.37 0.37 0.0 0 1 325.91 245.73
  L 321.13 245.73
  A 0.37 0.37 0.0 0 1 320.76 245.36
  L 320.81 237.11
  A 0.37 0.37 0.0 0 0 320.44 236.74
  L 307.13 236.75
  A 0.37 0.37 0.0 0 0 306.76 237.12
  Z"
/>
<path fill="none" stroke-width="1.00" stroke="#ffffff" vector-effect="non-scaling-stroke" d="
  M 335.99 228.07
  L 335.99 230.94
  A 0.32 0.32 0.0 0 0 336.31 231.26
  L 353.82 231.25
  A 0.32 0.32 0.0 0 1 354.14 231.57
  L 354.12 236.42
  A 0.32 0.32 0.0 0 1 353.80 236.74
  L 336.31 236.74
  A 0.32 0.32 0.0 0 0 335.99 237.06
  L 335.99 245.39
  A 0.32 0.32 0.0 0 1 335.67 245.71
  L 330.79 245.75
  A 0.32 0.32 0.0 0 1 330.47 245.43
  L 330.45 222.32
  A 0.32 0.32 0.0 0 1 330.77 222.00
  L 353.81 222.00
  A 0.32 0.32 0.0 0 1 354.13 222.32
  L 354.13 227.43
  A 0.32 0.32 0.0 0 1 353.81 227.75
  L 336.31 227.75
  A 0.32 0.32 0.0 0 0 335.99 228.07
  Z"
/>
<path fill="none" stroke-width="1.00" stroke="#ffffff" vector-effect="non-scaling-stroke" d="
  M 381.9630 241.6514
  A 4.15 4.15 0.0 0 1 377.7985 245.7869
  L 362.3386 245.7329
  A 4.15 4.15 0.0 0 1 358.2031 241.5685
  L 358.2570 226.1286
  A 4.15 4.15 0.0 0 1 362.4215 221.9931
  L 377.8814 222.0471
  A 4.15 4.15 0.0 0 1 382.0169 226.2115
  L 381.9630 241.6514
  Z
  M 363.77 235.63
  A 0.32 0.32 0.0 0 0 364.31 235.86
  L 371.96 228.29
  A 0.32 0.32 0.0 0 0 371.74 227.74
  L 364.14 227.71
  A 0.32 0.32 0.0 0 0 363.82 228.03
  L 363.77 235.63
  Z
  M 376.47 232.25
  A 0.35 0.35 0.0 0 0 375.88 232.00
  L 368.25 239.65
  A 0.35 0.35 0.0 0 0 368.50 240.25
  L 376.14 240.24
  A 0.35 0.35 0.0 0 0 376.49 239.89
  L 376.47 232.25
  Z"
/>
<path fill="none" stroke-width="1.00" stroke="#ffffff" vector-effect="non-scaling-stroke" d="
  M 392.09 240.25
  L 407.29 240.25
  A 0.46 0.46 0.0 0 1 407.75 240.71
  L 407.73 245.28
  A 0.46 0.46 0.0 0 1 407.27 245.74
  L 386.47 245.73
  A 0.46 0.46 0.0 0 1 386.01 245.27
  L 386.00 222.46
  A 0.46 0.46 0.0 0 1 386.46 222.00
  L 391.16 222.00
  A 0.46 0.46 0.0 0 1 391.62 222.46
  L 391.63 239.79
  A 0.46 0.46 0.0 0 0 392.09 240.25
  Z"
/>
<path fill="none" stroke-width="1.00" stroke="#ffffff" vector-effect="non-scaling-stroke" d="
  M 411.71 222.41
  A 0.39 0.39 0.0 0 1 412.10 222.02
  L 431.04 221.95
  A 4.71 4.47 89.8 0 1 435.52 226.65
  L 435.57 241.01
  A 4.71 4.47 89.8 0 1 431.12 245.73
  L 412.18 245.80
  A 0.39 0.39 0.0 0 1 411.79 245.41
  L 411.71 222.41
  Z
  M 430.00 228.02
  A 0.27 0.27 0.0 0 0 429.73 227.75
  L 417.57 227.75
  A 0.27 0.27 0.0 0 0 417.30 228.02
  L 417.30 239.98
  A 0.27 0.27 0.0 0 0 417.57 240.25
  L 429.73 240.25
  A 0.27 0.27 0.0 0 0 430.00 239.98
  L 430.00 228.02
  Z"
/>
<path fill="none" stroke-width="1.00" stroke="#ffffff" vector-effect="non-scaling-stroke" d="
  M 448.08 222.48
  A 0.49 0.49 0.0 0 1 448.57 221.99
  L 467.50 221.99
  A 4.65 4.40 -90.0 0 1 471.90 226.64
  L 471.90 241.12
  A 4.65 4.40 -90.0 0 1 467.50 245.77
  L 448.57 245.77
  A 0.49 0.49 0.0 0 1 448.08 245.28
  L 448.08 222.48
  Z
  M 466.26 228.01
  A 0.26 0.26 0.0 0 0 466.00 227.75
  L 453.92 227.75
  A 0.26 0.26 0.0 0 0 453.66 228.01
  L 453.66 239.99
  A 0.26 0.26 0.0 0 0 453.92 240.25
  L 466.00 240.25
  A 0.26 0.26 0.0 0 0 466.26 239.99
  L 466.26 228.01
  Z"
/>
<path fill="none" stroke-width="1.00" stroke="#ffffff" vector-effect="non-scaling-stroke" d="
  M 481.87 240.25
  L 499.38 240.25
  A 0.37 0.37 0.0 0 1 499.75 240.62
  L 499.68 245.37
  A 0.37 0.37 0.0 0 1 499.31 245.74
  L 476.33 245.73
  A 0.37 0.37 0.0 0 1 475.96 245.36
  L 475.95 222.37
  A 0.37 0.37 0.0 0 1 476.32 222.00
  L 499.35 222.00
  A 0.37 0.37 0.0 0 1 499.72 222.37
  L 499.71 227.38
  A 0.37 0.37 0.0 0 1 499.34 227.75
  L 481.85 227.74
  A 0.37 0.37 0.0 0 0 481.48 228.11
  L 481.49 230.89
  A 0.37 0.37 0.0 0 0 481.86 231.26
  L 499.38 231.25
  A 0.37 0.37 0.0 0 1 499.75 231.62
  L 499.71 236.38
  A 0.37 0.37 0.0 0 1 499.34 236.75
  L 481.84 236.73
  A 0.37 0.37 0.0 0 0 481.47 237.10
  L 481.50 239.88
  A 0.37 0.37 0.0 0 0 481.87 240.25
  Z"
/>
<path fill="none" stroke-width="1.00" stroke="#ffffff" vector-effect="non-scaling-stroke" d="
  M 509.50 227.74
  A 0.26 0.25 90.0 0 0 509.25 228.00
  L 509.25 230.99
  A 0.28 0.28 0.0 0 0 509.53 231.27
  Q 516.53 231.24 523.74 231.25
  Q 527.69 231.25 528.01 234.76
  Q 528.40 238.93 528.01 242.61
  A 3.50 3.49 -86.9 0 1 524.53 245.74
  Q 516.14 245.73 506.75 245.74
  C 504.16 245.75 503.48 241.24 503.75 238.85
  Q 503.82 238.25 504.43 238.25
  L 508.75 238.27
  Q 509.22 238.27 509.23 238.75
  L 509.26 239.64
  A 0.63 0.63 0.0 0 0 509.89 240.25
  L 522.22 240.26
  A 0.48 0.48 0.0 0 0 522.70 239.78
  L 522.71 237.23
  Q 522.71 236.74 522.23 236.74
  L 507.24 236.73
  A 3.50 3.49 0.0 0 1 503.75 233.25
  C 503.74 228.51 501.99 222.08 509.21 222.02
  Q 516.73 221.97 524.25 222.01
  C 527.72 222.03 528.49 225.99 528.08 229.30
  Q 528.02 229.75 527.56 229.75
  L 523.18 229.74
  Q 522.62 229.74 522.62 229.18
  L 522.62 228.31
  Q 522.62 227.75 522.06 227.75
  L 509.50 227.74
  Z"
/>
<path fill="none" stroke-width="1.00" stroke="#ffffff" vector-effect="non-scaling-stroke" d="
  M 538.33 230.88
  L 548.49 222.08
  A 0.34 0.34 0.0 0 1 548.72 222.00
  L 556.12 222.01
  A 0.34 0.34 0.0 0 1 556.35 222.61
  L 546.12 231.52
  A 0.34 0.34 0.0 0 0 546.08 231.98
  L 556.30 245.14
  A 0.34 0.34 0.0 0 1 556.04 245.69
  L 550.07 245.77
  A 0.34 0.34 0.0 0 1 549.80 245.64
  L 541.89 235.50
  A 0.34 0.34 0.0 0 0 541.40 235.45
  L 537.90 238.58
  A 0.34 0.34 0.0 0 0 537.79 238.83
  L 537.78 245.41
  A 0.34 0.34 0.0 0 1 537.44 245.75
  L 532.59 245.74
  A 0.34 0.34 0.0 0 1 532.25 245.40
  L 532.25 222.34
  A 0.34 0.34 0.0 0 1 532.59 222.00
  L 537.49 222.01
  A 0.34 0.34 0.0 0 1 537.83 222.35
  L 537.77 230.62
  A 0.34 0.34 0.0 0 0 538.33 230.88
  Z"
/>
</svg>
