<?xml version="1.0" encoding="UTF-8" standalone="no"?>
<!DOCTYPE svg PUBLIC "-//W3C//DTD SVG 1.1//EN" "http://www.w3.org/Graphics/SVG/1.1/DTD/svg11.dtd">
<svg xmlns="http://www.w3.org/2000/svg" version="1.1" viewBox="0.00 0.00 472.00 111.00" width="472.00" height="111.00">
<g>
<path fill="#ffffff" d="
  M 81.97 77.46
  L 81.93 106.75
  A 0.73 0.73 0.0 0 1 81.20 107.48
  L 35.32 107.48
  A 0.73 0.73 0.0 0 1 34.59 106.75
  L 34.58 77.46
  A 0.73 0.73 0.0 0 0 33.85 76.73
  L 4.72 76.75
  A 0.73 0.73 0.0 0 1 3.99 76.02
  L 3.97 30.24
  A 0.73 0.73 0.0 0 1 4.70 29.51
  L 34.78 29.52
  A 0.73 0.73 0.0 0 0 35.29 29.30
  L 57.69 6.73
  A 0.73 0.73 0.0 0 1 58.73 6.73
  L 81.31 29.31
  A 0.73 0.73 0.0 0 0 81.82 29.52
  L 111.88 29.50
  A 0.73 0.73 0.0 0 1 112.61 30.23
  L 112.63 75.99
  A 0.73 0.73 0.0 0 1 111.90 76.72
  L 82.70 76.73
  A 0.73 0.73 0.0 0 0 81.97 77.46
  Z
  M 62.19 18.39
  Q 62.75 17.36 64.98 15.96
  A 0.67 0.67 0.0 0 0 65.11 14.92
  L 58.69 8.29
  A 0.48 0.47 -44.2 0 0 58.01 8.29
  L 37.57 28.81
  Q 36.86 29.52 37.87 29.52
  L 65.97 29.51
  Q 66.49 29.51 66.86 29.15
  L 72.82 23.36
  Q 73.14 23.04 72.84 22.71
  L 70.29 19.91
  Q 70.01 19.60 69.72 19.91
  L 63.79 26.46
  Q 63.56 26.72 63.33 26.46
  L 63.11 26.22
  Q 62.67 25.72 63.12 25.23
  L 68.67 19.20
  Q 69.05 18.78 68.64 18.39
  L 66.73 16.52
  A 0.59 0.58 42.7 0 0 65.89 16.55
  Q 64.46 18.17 63.22 19.23
  Q 60.43 21.61 62.19 18.39
  Z
  M 68.91 28.96
  A 0.32 0.32 0.0 0 0 69.13 29.51
  L 73.81 29.52
  A 0.32 0.32 0.0 0 0 74.03 29.43
  L 76.59 26.93
  A 0.32 0.32 0.0 0 0 76.59 26.47
  L 74.28 24.14
  A 0.32 0.32 0.0 0 0 73.83 24.13
  L 68.91 28.96
  Z
  M 78.62 29.55
  Q 78.80 29.58 78.98 29.62
  A 0.26 0.26 0.0 0 0 79.27 29.26
  Q 78.86 28.30 77.96 27.84
  A 0.69 0.68 30.8 0 0 77.08 28.06
  L 76.44 29.02
  Q 76.03 29.64 76.77 29.58
  L 77.91 29.50
  Q 78.27 29.48 78.62 29.55
  Z
  M 93.84 31.58
  Q 93.86 31.44 93.89 31.21
  Q 93.96 30.74 93.49 30.74
  L 82.48 30.75
  Q 81.96 30.75 81.96 31.27
  L 81.96 51.99
  Q 81.96 52.52 82.49 52.52
  L 110.74 52.52
  Q 111.25 52.52 111.25 52.01
  L 111.27 44.74
  Q 111.27 43.98 110.73 44.51
  L 107.35 47.85
  Q 107.13 48.06 106.88 47.91
  L 106.62 47.77
  A 0.57 0.56 37.1 0 1 106.49 46.88
  L 111.67 41.53
  Q 111.79 41.40 111.67 41.27
  L 111.42 41.01
  Q 111.07 40.66 110.71 41.00
  L 103.83 47.49
  Q 103.55 47.76 103.28 47.49
  L 103.07 47.27
  A 0.63 0.63 0.0 0 1 103.07 46.37
  L 110.59 39.15
  Q 111.17 38.59 111.25 37.79
  L 111.34 36.77
  Q 111.44 35.75 110.71 36.47
  L 100.41 46.68
  A 0.33 0.33 0.0 0 1 99.98 46.71
  L 99.65 46.47
  A 0.56 0.55 -49.4 0 1 99.59 45.63
  L 111.00 34.37
  A 1.49 1.46 65.0 0 0 111.42 33.18
  L 111.36 32.51
  A 0.29 0.29 0.0 0 0 110.87 32.34
  L 96.82 46.50
  Q 96.40 46.92 96.15 46.39
  L 95.94 45.93
  A 0.48 0.48 0.0 0 1 96.03 45.38
  L 110.07 31.30
  A 0.41 0.41 0.0 0 0 109.74 30.61
  L 108.66 30.72
  A 2.18 2.16 19.6 0 0 107.30 31.36
  L 95.62 42.99
  A 0.34 0.34 0.0 0 1 95.05 42.83
  L 94.93 42.42
  A 0.88 0.87 -30.6 0 1 95.15 41.58
  L 105.51 31.20
  Q 106.22 30.49 105.23 30.63
  L 104.24 30.77
  Q 103.46 30.87 102.90 31.43
  L 95.50 38.75
  A 0.47 0.46 45.4 0 1 94.84 38.74
  L 94.67 38.56
  A 0.61 0.61 0.0 0 1 94.67 37.70
  L 101.19 31.19
  Q 101.56 30.82 101.06 30.66
  L 100.73 30.55
  A 0.99 0.99 0.0 0 0 99.72 30.79
  L 94.71 35.69
  A 0.32 0.31 -35.5 0 1 94.21 35.61
  L 94.04 35.28
  A 0.75 0.75 0.0 0 1 94.19 34.41
  L 97.46 31.20
  Q 97.56 31.09 97.56 30.94
  Q 97.55 30.78 97.45 30.67
  Q 97.14 30.31 96.78 30.62
  L 94.96 32.19
  Q 93.58 33.39 93.84 31.58
  Z
  M 34.59 31.10
  A 0.36 0.36 0.0 0 0 34.23 30.74
  L 5.61 30.74
  A 0.36 0.36 0.0 0 0 5.25 31.10
  L 5.25 52.16
  A 0.36 0.36 0.0 0 0 5.61 52.52
  L 34.23 52.52
  A 0.36 0.36 0.0 0 0 34.59 52.16
  L 34.59 31.10
  Z
  M 64.96 39.53
  A 0.28 0.28 0.0 0 1 64.59 39.55
  L 63.97 39.06
  A 0.28 0.28 0.0 0 1 63.95 38.64
  L 71.79 31.23
  A 0.28 0.28 0.0 0 0 71.60 30.74
  L 67.11 30.71
  A 0.28 0.28 0.0 0 0 66.91 30.80
  L 64.22 33.70
  A 0.28 0.28 0.0 0 1 63.86 33.75
  L 63.27 33.37
  A 0.28 0.28 0.0 0 1 63.20 32.95
  L 64.65 31.21
  A 0.28 0.28 0.0 0 0 64.43 30.75
  L 37.53 30.74
  A 0.28 0.28 0.0 0 0 37.33 31.22
  L 58.08 52.09
  A 0.28 0.28 0.0 0 0 58.48 52.09
  L 79.17 31.20
  A 0.28 0.28 0.0 0 0 78.97 30.72
  L 74.34 30.74
  A 0.28 0.28 0.0 0 0 74.15 30.82
  L 64.96 39.53
  Z
  M 58.52 53.70
  A 0.31 0.31 0.0 0 1 58.08 53.70
  L 36.45 32.16
  A 0.31 0.31 0.0 0 0 35.92 32.38
  L 35.93 75.21
  A 0.31 0.31 0.0 0 0 36.24 75.52
  L 80.36 75.52
  A 0.31 0.31 0.0 0 0 80.67 75.21
  L 80.61 32.49
  A 0.31 0.31 0.0 0 0 80.08 32.27
  L 58.52 53.70
  Z
  M 34.59 54.12
  A 0.38 0.38 0.0 0 0 34.21 53.74
  L 5.63 53.74
  A 0.38 0.38 0.0 0 0 5.25 54.12
  L 5.25 75.14
  A 0.38 0.38 0.0 0 0 5.63 75.52
  L 34.21 75.52
  A 0.38 0.38 0.0 0 0 34.59 75.14
  L 34.59 54.12
  Z
  M 110.74 75.54
  A 0.54 0.54 0.0 0 0 111.28 75.00
  L 111.27 54.26
  A 0.54 0.54 0.0 0 0 110.73 53.72
  L 82.30 53.74
  A 0.54 0.54 0.0 0 0 81.76 54.28
  L 81.89 74.99
  A 0.54 0.54 0.0 0 0 82.43 75.53
  L 110.74 75.54
  Z
  M 57.62 77.03
  A 0.29 0.29 0.0 0 0 57.33 76.74
  L 36.21 76.74
  A 0.29 0.29 0.0 0 0 35.92 77.03
  L 35.92 105.71
  A 0.29 0.29 0.0 0 0 36.21 106.00
  L 57.33 106.00
  A 0.29 0.29 0.0 0 0 57.62 105.71
  L 57.62 77.03
  Z
  M 80.62 77.03
  A 0.29 0.29 0.0 0 0 80.33 76.74
  L 59.27 76.74
  A 0.29 0.29 0.0 0 0 58.98 77.03
  L 58.98 105.71
  A 0.29 0.29 0.0 0 0 59.27 106.00
  L 80.33 106.00
  A 0.29 0.29 0.0 0 0 80.62 105.71
  L 80.62 77.03
  Z"
/>
<path fill="#ffffff" d="
  M 143.62 51.05
  L 143.49 68.26
  A 0.36 0.36 0.0 0 1 143.13 68.62
  L 138.47 68.60
  A 0.36 0.36 0.0 0 1 138.11 68.24
  L 138.12 51.09
  A 0.36 0.36 0.0 0 0 137.76 50.73
  L 129.37 50.73
  A 0.36 0.36 0.0 0 1 129.01 50.37
  L 129.00 45.36
  A 0.36 0.36 0.0 0 1 129.36 45.00
  L 152.40 45.00
  A 0.36 0.36 0.0 0 1 152.76 45.36
  L 152.75 50.39
  A 0.36 0.36 0.0 0 1 152.39 50.75
  L 143.98 50.69
  A 0.36 0.36 0.0 0 0 143.62 51.05
  Z"
/>
<path fill="#ffffff" d="
  M 162.64 63.28
  L 180.21 63.27
  A 0.32 0.32 0.0 0 1 180.53 63.59
  L 180.52 68.39
  A 0.32 0.32 0.0 0 1 180.20 68.71
  L 157.17 68.71
  A 0.32 0.32 0.0 0 1 156.85 68.39
  L 156.86 45.32
  A 0.32 0.32 0.0 0 1 157.18 45.00
  L 180.21 45.00
  A 0.32 0.32 0.0 0 1 180.53 45.32
  L 180.52 50.43
  A 0.32 0.32 0.0 0 1 180.20 50.75
  L 162.68 50.75
  A 0.32 0.32 0.0 0 0 162.36 51.07
  L 162.38 53.95
  A 0.32 0.32 0.0 0 0 162.70 54.27
  L 180.19 54.26
  A 0.32 0.32 0.0 0 1 180.51 54.58
  L 180.58 59.39
  A 0.32 0.32 0.0 0 1 180.26 59.71
  L 162.66 59.72
  A 0.32 0.32 0.0 0 0 162.34 60.04
  L 162.32 62.96
  A 0.32 0.32 0.0 0 0 162.64 63.28
  Z"
/>
<path fill="#ffffff" d="
  M 190.74 63.25
  L 203.01 63.29
  Q 203.57 63.29 203.63 62.74
  Q 203.68 62.19 203.93 61.67
  Q 204.12 61.27 204.56 61.27
  L 208.46 61.26
  Q 208.92 61.26 208.96 61.71
  C 209.26 64.79 209.12 68.67 205.17 68.70
  Q 196.32 68.76 188.23 68.73
  A 3.54 3.53 0.2 0 1 184.71 65.20
  L 184.70 49.23
  A 4.21 4.21 0.0 0 1 188.89 45.02
  Q 196.54 44.97 204.75 45.00
  C 209.11 45.02 209.01 48.89 209.14 52.05
  Q 209.17 52.76 208.47 52.75
  L 204.21 52.69
  A 0.58 0.58 0.0 0 1 203.66 51.97
  Q 203.75 51.61 203.66 51.24
  Q 203.52 50.72 202.98 50.72
  L 190.74 50.76
  Q 190.24 50.76 190.24 51.26
  L 190.23 62.74
  Q 190.23 63.24 190.74 63.25
  Z"
/>
<path fill="#ffffff" d="
  M 219.10 54.34
  L 232.40 54.23
  A 0.37 0.37 0.0 0 0 232.77 53.86
  L 232.78 45.38
  A 0.37 0.37 0.0 0 1 233.15 45.01
  L 237.93 45.00
  A 0.37 0.37 0.0 0 1 238.30 45.37
  L 238.28 68.36
  A 0.37 0.37 0.0 0 1 237.91 68.73
  L 233.12 68.71
  A 0.37 0.37 0.0 0 1 232.75 68.34
  L 232.82 60.12
  A 0.37 0.37 0.0 0 0 232.45 59.75
  L 219.12 59.69
  A 0.37 0.37 0.0 0 0 218.75 60.06
  L 218.70 68.26
  A 0.37 0.37 0.0 0 1 218.34 68.63
  L 213.58 68.73
  A 0.37 0.37 0.0 0 1 213.20 68.36
  L 213.20 45.37
  A 0.37 0.37 0.0 0 1 213.57 45.00
  L 218.38 45.00
  A 0.37 0.37 0.0 0 1 218.75 45.37
  L 218.73 53.97
  A 0.37 0.37 0.0 0 0 219.10 54.34
  Z"
/>
<path fill="#ffffff" d="
  M 247.99 51.06
  L 247.98 53.97
  A 0.32 0.32 0.0 0 0 248.30 54.29
  L 265.82 54.26
  A 0.32 0.32 0.0 0 1 266.14 54.58
  L 266.12 59.34
  A 0.32 0.32 0.0 0 1 265.80 59.66
  L 248.31 59.67
  A 0.32 0.32 0.0 0 0 247.99 59.99
  L 247.99 68.37
  A 0.32 0.32 0.0 0 1 247.67 68.69
  L 242.79 68.73
  A 0.32 0.32 0.0 0 1 242.47 68.41
  L 242.47 45.32
  A 0.32 0.32 0.0 0 1 242.79 45.00
  L 265.81 45.00
  A 0.32 0.32 0.0 0 1 266.13 45.32
  L 266.13 50.43
  A 0.32 0.32 0.0 0 1 265.81 50.75
  L 248.31 50.74
  A 0.32 0.32 0.0 0 0 247.99 51.06
  Z"
/>
<path fill="#ffffff" d="
  M 293.9630 64.6414
  A 4.15 4.15 0.0 0 1 289.7985 68.7769
  L 274.3586 68.7230
  A 4.15 4.15 0.0 0 1 270.2231 64.5585
  L 270.2770 49.1186
  A 4.15 4.15 0.0 0 1 274.4415 44.9831
  L 289.8814 45.0370
  A 4.15 4.15 0.0 0 1 294.0169 49.2015
  L 293.9630 64.6414
  Z
  M 275.77 58.63
  A 0.32 0.32 0.0 0 0 276.31 58.86
  L 283.96 51.29
  A 0.32 0.32 0.0 0 0 283.74 50.74
  L 276.14 50.71
  A 0.32 0.32 0.0 0 0 275.82 51.03
  L 275.77 58.63
  Z
  M 288.48 55.22
  A 0.34 0.34 0.0 0 0 287.90 54.98
  L 280.23 62.68
  A 0.34 0.34 0.0 0 0 280.47 63.26
  L 288.16 63.25
  A 0.34 0.34 0.0 0 0 288.50 62.91
  L 288.48 55.22
  Z"
/>
<path fill="#ffffff" d="
  M 303.94 63.27
  L 319.30 63.27
  A 0.41 0.41 0.0 0 1 319.71 63.69
  L 319.64 68.30
  A 0.41 0.41 0.0 0 1 319.23 68.70
  L 298.43 68.72
  A 0.41 0.41 0.0 0 1 298.02 68.31
  L 298.00 45.41
  A 0.41 0.41 0.0 0 1 298.41 45.00
  L 303.15 45.00
  A 0.41 0.41 0.0 0 1 303.56 45.41
  L 303.53 62.86
  A 0.41 0.41 0.0 0 0 303.94 63.27
  Z"
/>
<path fill="#ffffff" d="
  M 323.80 45.46
  A 0.51 0.51 0.0 0 1 324.31 44.95
  L 343.10 45.02
  A 4.55 4.48 -89.8 0 1 347.57 49.58
  L 347.51 64.24
  A 4.55 4.48 -89.8 0 1 343.02 68.78
  L 324.23 68.71
  A 0.51 0.51 0.0 0 1 323.72 68.20
  L 323.80 45.46
  Z
  M 342.00 51.00
  A 0.26 0.26 0.0 0 0 341.74 50.74
  L 329.54 50.74
  A 0.26 0.26 0.0 0 0 329.28 51.00
  L 329.28 63.02
  A 0.26 0.26 0.0 0 0 329.54 63.28
  L 341.74 63.28
  A 0.26 0.26 0.0 0 0 342.00 63.02
  L 342.00 51.00
  Z"
/>
<path fill="#ffffff" d="
  M 360.09 45.51
  A 0.53 0.53 0.0 0 1 360.62 44.98
  L 379.50 45.01
  A 4.61 4.41 -89.9 0 1 383.90 49.63
  L 383.88 64.15
  A 4.61 4.41 -89.9 0 1 379.46 68.75
  L 360.58 68.72
  A 0.53 0.53 0.0 0 1 360.05 68.19
  L 360.09 45.51
  Z
  M 378.2695 51.0090
  A 0.27 0.27 0.0 0 0 377.9991 50.7394
  L 365.8791 50.7606
  A 0.27 0.27 0.0 0 0 365.6096 51.0311
  L 365.6305 63.0110
  A 0.27 0.27 0.0 0 0 365.9009 63.2806
  L 378.0209 63.2594
  A 0.27 0.27 0.0 0 0 378.2904 62.9889
  L 378.2695 51.0090
  Z"
/>
<path fill="#ffffff" d="
  M 393.45 51.05
  L 393.38 53.97
  A 0.32 0.32 0.0 0 0 393.70 54.30
  L 411.28 54.27
  A 0.32 0.32 0.0 0 1 411.60 54.59
  L 411.64 59.35
  A 0.32 0.32 0.0 0 1 411.32 59.67
  L 393.75 59.70
  A 0.32 0.32 0.0 0 0 393.43 60.01
  L 393.36 62.95
  A 0.32 0.32 0.0 0 0 393.68 63.28
  L 411.16 63.34
  A 0.32 0.32 0.0 0 1 411.48 63.65
  L 411.60 68.31
  A 0.32 0.32 0.0 0 1 411.28 68.64
  L 388.29 68.69
  A 0.32 0.32 0.0 0 1 387.97 68.37
  L 387.93 45.32
  A 0.32 0.32 0.0 0 1 388.25 45.00
  L 411.34 45.00
  A 0.32 0.32 0.0 0 1 411.66 45.32
  L 411.60 50.42
  A 0.32 0.32 0.0 0 1 411.28 50.74
  L 393.77 50.74
  A 0.32 0.32 0.0 0 0 393.45 51.05
  Z"
/>
<path fill="#ffffff" d="
  M 421.50 50.74
  A 0.26 0.25 90.0 0 0 421.25 51.00
  L 421.25 54.00
  A 0.30 0.29 89.0 0 0 421.54 54.29
  Q 428.66 54.24 435.99 54.26
  C 441.81 54.28 440.42 62.01 439.98 65.66
  A 3.47 3.46 3.3 0 1 436.53 68.72
  Q 428.49 68.72 419.57 68.69
  C 415.78 68.68 415.46 64.61 415.76 61.74
  Q 415.81 61.25 416.30 61.25
  L 420.75 61.29
  Q 421.21 61.29 421.23 61.75
  L 421.27 62.66
  Q 421.29 63.28 421.91 63.28
  L 434.22 63.27
  A 0.49 0.49 0.0 0 0 434.71 62.78
  L 434.72 60.23
  Q 434.73 59.73 434.23 59.73
  L 419.20 59.71
  A 3.44 3.44 0.0 0 1 415.76 56.34
  C 415.67 51.72 414.03 45.08 421.13 45.03
  Q 428.69 44.97 436.25 45.01
  C 439.64 45.03 440.46 48.90 440.22 52.18
  Q 440.17 52.80 439.55 52.78
  L 435.09 52.67
  Q 434.48 52.65 434.65 52.07
  Q 434.77 51.66 434.66 51.24
  Q 434.52 50.75 434.01 50.75
  L 421.50 50.74
  Z"
/>
<path fill="#ffffff" d="
  M 450.26 53.94
  L 460.51 45.07
  A 0.30 0.30 0.0 0 1 460.70 45.00
  L 468.21 45.01
  A 0.30 0.30 0.0 0 1 468.41 45.54
  L 458.09 54.54
  A 0.30 0.30 0.0 0 0 458.05 54.95
  L 468.34 68.18
  A 0.30 0.30 0.0 0 1 468.11 68.67
  L 462.04 68.75
  A 0.30 0.30 0.0 0 1 461.80 68.63
  L 453.86 58.45
  A 0.30 0.30 0.0 0 0 453.42 58.42
  L 449.87 61.61
  A 0.30 0.30 0.0 0 0 449.77 61.83
  L 449.76 68.42
  A 0.30 0.30 0.0 0 1 449.46 68.72
  L 444.56 68.64
  A 0.30 0.30 0.0 0 1 444.26 68.34
  L 444.25 45.30
  A 0.30 0.30 0.0 0 1 444.55 45.00
  L 449.50 45.00
  A 0.30 0.30 0.0 0 1 449.80 45.30
  L 449.76 53.71
  A 0.30 0.30 0.0 0 0 450.26 53.94
  Z"
/>
</g>
</svg>
