<svg xmlns="http://www.w3.org/2000/svg" viewBox="3.73 5.01 108.66 100.97"><path vector-effect="non-scaling-stroke" d="M81.73 75.96l-.04 29.29a.73.73 0 01-.73.73H35.08a.73.73 0 01-.73-.73l-.01-29.29a.73.73 0 00-.73-.73l-29.13.02a.73.73 0 01-.73-.73l-.02-45.78a.73.73 0 01.73-.73l30.08.01a.73.73 0 00.51-.22l22.4-22.57a.73.73 0 011.04 0l22.58 22.58a.73.73 0 00.51.21l30.06-.02a.73.73 0 01.73.73l.02 45.76a.73.73 0 01-.73.73l-29.2.01a.73.73 0 00-.73.73zM61.95 16.89q.56-1.03 2.79-2.43a.67.67 0 00.13-1.04l-6.42-6.63a.465.465 0 00-.337-.143.485.485 0 00-.343.143L37.33 27.31q-.71.71.3.71l28.1-.01q.52 0 .89-.36l5.96-5.79q.32-.32.02-.65l-2.55-2.8q-.28-.31-.57 0l-5.93 6.55q-.23.26-.46 0l-.22-.24q-.44-.5.01-.99l5.55-6.03q.38-.42-.03-.81l-1.91-1.87a.595.595 0 00-.43-.163.575.575 0 00-.41.193q-1.43 1.62-2.67 2.68-2.79 2.38-1.03-.84zm6.72 10.57a.32.32 0 00.22.55l4.68.01a.32.32 0 00.22-.09l2.56-2.5a.32.32 0 000-.46l-2.31-2.33a.32.32 0 00-.45-.01l-4.92 4.83zm9.71.59q.18.03.36.07a.26.26 0 00.29-.36q-.41-.96-1.31-1.42a.685.685 0 00-.88.22l-.64.96q-.41.62.33.56l1.14-.08q.36-.02.71.05zm15.22 2.03q.02-.14.05-.37.07-.47-.4-.47l-11.01.01q-.52 0-.52.52v20.72q0 .53.53.53h28.25q.51 0 .51-.51l.02-7.27q0-.76-.54-.23l-3.38 3.34q-.22.21-.47.06l-.26-.14a.576.576 0 01-.286-.417.554.554 0 01.156-.473l5.18-5.35q.12-.13 0-.26l-.25-.26q-.35-.35-.71-.01l-6.88 6.49q-.28.27-.55 0l-.21-.22a.63.63 0 010-.9l7.52-7.22q.58-.56.66-1.36l.09-1.02q.1-1.02-.63-.3l-10.3 10.21a.33.33 0 01-.43.03l-.33-.24a.544.544 0 01-.223-.403.566.566 0 01.163-.437l11.41-11.26c.31-.31.464-.747.42-1.19l-.06-.67a.29.29 0 00-.49-.17L96.58 45q-.42.42-.67-.11l-.21-.46a.48.48 0 01.09-.55l14.04-14.08a.41.41 0 00-.33-.69l-1.08.11a2.17 2.17 0 00-1.36.64L95.38 41.49a.34.34 0 01-.57-.16l-.12-.41a.875.875 0 01.22-.84l10.36-10.38q.71-.71-.28-.57l-.99.14q-.78.1-1.34.66l-7.4 7.32a.455.455 0 01-.33.132.475.475 0 01-.33-.142l-.17-.18a.61.61 0 010-.86l6.52-6.51q.37-.37-.13-.53l-.33-.11a.99.99 0 00-1.01.24l-5.01 4.9a.326.326 0 01-.274.085.304.304 0 01-.226-.165l-.17-.33a.75.75 0 01.15-.87l3.27-3.21q.1-.11.1-.26-.01-.16-.11-.27-.31-.36-.67-.05l-1.82 1.57q-1.38 1.2-1.12-.61zm-59.25-.48a.36.36 0 00-.36-.36H5.37a.36.36 0 00-.36.36v21.06a.36.36 0 00.36.36h28.62a.36.36 0 00.36-.36V29.6zm30.37 8.43a.28.28 0 01-.37.02l-.62-.49a.28.28 0 01-.02-.42l7.84-7.41a.28.28 0 00-.19-.49l-4.49-.03a.28.28 0 00-.2.09l-2.69 2.9a.28.28 0 01-.36.05l-.59-.38a.28.28 0 01-.07-.42l1.45-1.74a.28.28 0 00-.22-.46l-26.9-.01a.28.28 0 00-.2.48l20.75 20.87a.28.28 0 00.4 0L78.93 29.7a.28.28 0 00-.2-.48l-4.63.02a.28.28 0 00-.19.08l-9.19 8.71zM58.28 52.2a.31.31 0 01-.44 0L36.21 30.66a.31.31 0 00-.53.22l.01 42.83a.31.31 0 00.31.31h44.12a.31.31 0 00.31-.31l-.06-42.72a.31.31 0 00-.53-.22L58.28 52.2zm-23.93.42a.38.38 0 00-.38-.38H5.39a.38.38 0 00-.38.38v21.02c0 .21.17.38.38.38h28.58c.21 0 .38-.17.38-.38V52.62zm76.15 21.42a.54.54 0 00.54-.54l-.01-20.74a.54.54 0 00-.54-.54l-28.43.02a.54.54 0 00-.54.54l.13 20.71a.54.54 0 00.54.54l28.31.01zm-53.12 1.49a.29.29 0 00-.29-.29H35.97a.29.29 0 00-.29.29v28.68a.29.29 0 00.29.29h21.12a.29.29 0 00.29-.29V75.53zm23 0a.29.29 0 00-.29-.29H59.03a.29.29 0 00-.29.29v28.68a.29.29 0 00.29.29h21.06a.29.29 0 00.29-.29V75.53z" style="stroke:none;stroke-width:1;stroke-dasharray:none;stroke-linecap:butt;stroke-dashoffset:0;stroke-linejoin:miter;stroke-miterlimit:4;fill:#000;fill-rule:nonzero;opacity:1"/></svg>